<svg width="1043" height="775" viewBox="0 0 1043 775" fill="none" xmlns="http://www.w3.org/2000/svg">
<path d="M353.843 452.192C362.191 437.757 370.322 423.226 378.983 408.984C381.678 404.557 383.578 397.701 391.036 399.553C398.229 401.334 397.051 408.118 397.869 413.411C399.216 422.047 398.013 430.973 401.068 439.489C407.035 456.186 419.112 461.021 433.811 451.037C445.96 442.785 457.051 433.643 460.515 417.404C463.498 403.33 473.916 394.044 487.436 388.968C492.488 387.067 497.997 386.346 500.259 393.202C502.232 399.192 499.754 402.272 493.715 404.822C475.576 412.52 473.458 427.22 488.302 439.489C496.939 446.635 505.913 453.419 512.649 462.465C515.776 466.675 518.278 466.675 522.32 463.595C543.611 447.428 564.566 430.78 588.335 418.126C591.366 416.514 592.762 411.727 594.734 408.31C601.639 396.474 609.193 385.167 621.631 378.382C635.055 371.045 652.16 375.736 657.982 388.222C659.33 391.109 660.869 394.357 658.079 397.147C655.047 400.203 652.305 397.797 649.562 396.137C634.165 386.73 629.137 387.741 618.046 402.488C607.124 416.995 599.113 432.657 598.078 453.611C607.774 443.002 611.888 431.671 618.094 421.662C621.679 415.889 625.192 410.091 628.872 404.389C630.869 401.285 633.203 398.326 637.557 399.481C642.056 400.684 643.74 404.221 644.125 408.479C644.967 417.621 644.919 426.955 646.771 435.881C650.861 455.801 665.609 461.214 682.594 450.267C689.017 446.129 689.907 440.789 689.907 434.028C690.052 365.632 690.388 297.259 690.701 228.863C690.725 224.075 690.629 219.239 691.062 214.476C692.794 196.048 704.655 185.607 723.035 186.064C739.972 186.497 752.386 198.309 751.76 216.304C750.822 242.239 748.224 268.101 746.106 293.987C741.752 347.324 737.253 400.66 732.802 454.068C738.023 454.429 737.903 450.195 739.202 447.765C749.739 428.038 760.253 408.286 772.426 389.497C775.457 384.806 778.897 380.379 782.386 376.001C785.922 371.574 790.902 368.495 795.786 372.416C800.525 376.217 795.618 380.379 793.525 383.843C790.638 388.631 787.582 393.419 783.877 397.556C765.208 418.415 763.717 442.256 770.068 468.166C775.962 492.176 779.475 516.86 791.696 538.921C793.621 542.385 794.03 545.657 790.565 548.568C786.524 551.984 783.083 550.035 779.908 547.365C774.519 542.842 771.776 536.611 769.298 530.212C760.71 507.958 756.548 484.454 750.317 458.591C736.844 483.058 726.62 505.625 725.97 531.751C725.585 547.317 724.31 562.906 722.626 578.376C721.904 584.943 723.733 588.769 729.266 592.016C734.414 595.024 738.985 599.017 743.821 602.554C767.614 619.875 779.21 643.067 777.839 672.658C776.588 699.411 774.591 726.163 775.794 752.964C776.034 758.593 773.292 761.023 768.961 762.659C720.437 780.895 672.778 778.754 626.058 756.308C622.353 754.527 619.418 752.17 619.754 747.19C621.848 716.901 623.195 686.54 625.985 656.323C628.512 628.825 644.943 609.458 668.496 597.862C685.553 589.442 690.316 578.472 689.498 560.452C688.079 528.672 689.113 496.771 689.113 464.798C652.666 474.277 637.629 465.977 631.23 433.09C625.119 433.643 624.59 439.321 622.425 443.098C617.276 452.096 612.898 461.526 606.45 469.778C602.216 475.191 596.948 476.514 590.476 474.782C584.004 473.05 581.478 468.551 581.358 462.368C581.214 454.117 581.334 445.865 581.334 436.362C562.473 448.655 544.862 460.829 528.334 474.638C523.908 478.343 523.427 482.553 524.605 487.485C532.28 519.434 520.828 546.33 502.063 571.038C495.953 579.097 487.845 585.04 478.053 588.263C462.055 593.508 449.978 585.16 449.28 568.367C448.318 544.911 461.333 527.589 474.974 510.701C481.758 502.329 489.216 494.462 496.795 486.787C501.101 482.433 500.788 479.041 497.252 474.47C488.831 463.595 477.091 456.258 467.949 446.177C464.557 442.449 462.753 445.239 460.299 447.428C454.645 452.457 449.064 457.725 442.881 462.056C419.785 478.199 395.776 470.043 386.922 443.29C385.791 439.898 385.022 436.386 383.939 432.44C378.694 433.932 377.925 439.129 375.711 442.882C370.058 452.481 365.872 462.97 358.149 471.318C353.698 476.13 348.454 476.394 342.776 474.59C337.122 472.785 334.476 468.527 334.284 462.826C333.225 429 345.879 401.069 372.367 380.331C385.96 369.673 404.917 374.629 411.437 388.559C412.784 391.422 414.565 394.477 411.413 397.316C408.213 400.179 405.591 397.869 402.873 396.185C387.86 386.827 383.049 387.524 372.078 401.598C360.579 416.249 352.423 432.416 353.843 452.192ZM506.851 494.005C486.859 514.863 468.743 532.81 463.595 559.37C462.608 564.398 460.948 570.629 465.928 573.829C471.847 577.63 476.802 572.072 480.387 568.536C500.09 549.049 508.487 525.135 506.851 494.005ZM709.49 729.267C709.346 729.267 709.226 729.267 709.081 729.243C709.081 730.445 708.913 731.672 709.105 732.827C709.827 736.893 706.291 742.932 714.663 743.341C723.107 743.749 720.677 737.687 720.894 733.525C722.385 704.006 723.66 674.487 725.032 644.968C725.248 640.421 725.513 635.898 718.897 635.778C712.161 635.657 713.917 640.758 713.725 644.27C712.209 672.61 710.886 700.951 709.49 729.267ZM648.383 694.647C647.854 704.271 647.902 703.982 647.902 711.56C647.902 719.138 647.998 726.692 647.854 734.271C647.806 737.759 647.878 740.478 652.545 740.79C657.429 741.103 658.632 738.818 658.824 734.487C660.268 703.453 661.928 672.394 663.347 641.359C663.516 637.799 664.983 633.155 658.343 632.77C651.631 632.386 651.511 636.403 651.511 641.07C651.535 664.575 649.707 670.589 648.383 694.647ZM692.626 676.002C692.578 676.002 692.505 676.002 692.457 676.002C693.059 665.249 693.708 654.495 694.262 643.717C694.502 639.29 695.128 634.912 688.079 635.056C681.631 635.2 682.642 639.362 682.449 643.236C681.102 673.14 679.827 703.044 678.384 732.948C678.167 737.687 677.71 741.584 684.518 741.632C691.279 741.656 689.715 737.013 689.883 733.429C690.894 714.279 691.736 695.153 692.626 676.002ZM741.92 691.809C742.041 691.809 742.137 691.833 742.257 691.833C741.511 706.171 740.693 720.534 740.092 734.872C739.924 738.962 738.528 744.038 745.842 743.942C752.987 743.822 751.616 738.697 751.784 734.632C752.987 705.137 754.094 675.642 755.152 646.147C755.273 642.514 757.221 637.991 750.461 637.558C744.086 637.149 744.591 641.263 744.374 645.208C743.556 660.726 742.738 676.267 741.92 691.809Z" fill="#DF1B4F"/>
<path d="M35.7252 0C35.8455 51.8207 27.8582 100.634 34.7628 149.592C49.1013 102.15 48.2112 52.3259 59.4222 4.42664C59.4222 20.6657 59.8552 36.9289 59.3019 53.1439C58.7245 69.9122 56.5834 86.6325 56.2947 103.377C55.9819 119.712 53.5039 136.384 60.8175 152.431C76.4792 104.748 73.0871 54.2265 84.1296 5.822C88.027 54.8039 78.7888 103.858 86.0062 153.032C99.8635 105.855 99.1899 56.4398 110.257 8.44431C110.81 14.3385 111.652 20.2086 111.892 26.1028C114.226 85.2371 115.525 144.347 106.503 203.169C104.435 216.689 99.0215 229.103 89.0375 237.812C71.0903 253.426 66.7839 273.225 65.581 295.503C61.2265 376.674 63.512 457.798 66.3509 538.921C66.399 540.484 66.2306 542.193 69.4784 543.299C73.7607 527.349 78.043 511.35 82.3734 495.352C93.7288 453.299 106.479 411.703 126.544 372.801C130.369 365.391 135.156 358.414 140.064 351.654C144.371 345.736 150.553 342.657 157.939 344.942C164.772 347.059 165.734 353.386 166.576 359.425C169.992 383.82 166.937 408.142 165.181 432.416C163.569 454.814 163.4 477.14 164.291 499.514C164.363 501.078 164.435 502.714 166.913 503.676C173.601 498.431 175.814 490.276 178.749 482.673C199.271 429.433 215.389 374.581 237.787 322.039C250.947 291.149 265.117 260.763 283.401 232.471C288.838 224.051 294.684 215.944 302.166 209.183C316.336 196.409 329.28 199.945 334.211 218.301C339.071 236.369 338.349 255.086 335.823 273.129C325.791 344.99 314.219 416.635 303.923 488.447C298.101 529.129 294.732 570.124 290.955 611.046C287.635 647.253 283.088 683.316 284.003 719.788C284.099 723.806 283.906 728.665 278.878 729.315C273.08 730.085 271.95 724.984 271.084 720.63C267.691 703.429 271.156 686.323 272.238 669.242C275.63 614.992 278.902 560.717 283.906 506.611C289.897 441.775 300.723 377.565 311.501 313.354C316.048 286.169 320.065 258.863 319.729 231.172C319.68 226.577 320.186 220.25 315.663 218.638C311.645 217.219 308.277 222.56 305.558 225.855C289.223 245.751 277.723 268.582 266.488 291.534C239.014 347.54 220.225 406.867 200.281 465.737C195.157 480.845 189.479 495.809 180.698 509.257C176.608 515.536 172.687 523.476 163.689 522.297C153.801 521.022 152.598 511.615 150.842 504.061C146.825 486.787 146.873 469.249 148.34 451.591C150.626 424.117 152.502 396.594 154.258 369.096C154.451 365.969 156.351 360.844 151.804 359.786C147.955 358.896 146.127 363.515 144.226 366.45C123.849 398.014 112.085 433.259 102.245 469.033C87.3775 523.163 75.2523 578.039 58.1952 631.592C53.6483 645.882 42.0524 656.492 29.3258 656.371C16.527 656.251 6.80757 647.253 3.65599 630.653C-2.83964 596.419 0.576578 561.992 4.25744 527.854C12.9905 447.236 22.6617 366.738 38.6121 287.155C41.8118 271.229 40.4165 255.711 29.6626 242.816C9.11713 218.181 6.18207 190.13 9.40583 159.408C14.3618 112.086 18.9087 64.7398 28.3634 18.0434C29.3979 12.7507 30.264 7.3136 35.7252 0Z" fill="#DF1B4F"/>
<path d="M958.826 410.62C951.392 414.638 949.227 419.858 946.509 424.501C939.628 436.194 933.181 448.15 926.132 459.746C922.042 466.458 917.711 475.119 908.425 473.315C898.994 471.486 899.403 461.551 897.936 454.261C888.722 463.042 879.748 471.968 870.365 480.436C858.697 490.973 846.356 502.016 829.082 496.194C811.159 490.155 805.746 473.772 803.485 457.268C800.598 436.193 801.704 414.999 808.465 394.477C809.09 392.601 809.86 390.724 810.774 388.968C813.204 384.277 816.765 381.414 822.37 382.737C828.842 384.277 828.529 389.377 827.783 394.212C825.305 410.379 821.311 426.306 821.384 442.833C821.432 452.962 823.092 462.681 826.7 472.088C830.453 481.928 837.093 484.814 846.548 479.762C850.758 477.525 855.209 475.312 858.625 472.112C879.532 452.553 901.256 433.595 907.607 403.427C909.051 396.57 912.78 390.026 916.292 383.82C918.722 379.489 922.066 373.787 928.321 376.795C933.662 379.369 932.194 384.902 930.847 389.642C926.396 405.375 921.97 421.109 917.423 436.819C916.845 438.84 913.766 441.029 917.182 442.641C919.732 443.844 921.489 441.438 922.812 439.369C928.417 430.636 933.878 421.783 939.676 413.17C943.237 407.877 946.99 402.657 951.248 397.941C954.712 394.092 959.043 390.435 964.841 392.577C970.158 394.525 970.759 399.577 971.192 404.485C972.467 418.8 973.622 433.138 975.186 447.429C975.667 451.735 976.846 456.113 978.482 460.131C983.293 471.944 991.064 473.7 1000.71 464.967C1010.57 456.017 1017 444.301 1024.89 433.764C1028.81 428.519 1032.03 416.995 1039.54 421.927C1047.21 426.955 1038.89 435.52 1035.31 441.486C1027.87 453.828 1018.85 465.111 1008.07 474.806C991.569 489.65 975.065 486.041 966.044 465.664C960.943 454.165 959.38 441.919 958.85 429.505C958.634 423.948 958.826 418.391 958.826 410.62Z" fill="#DF1B4F"/>
<path d="M846.115 326.586C846.235 336.257 842.603 341.694 834.591 342.007C826.075 342.344 822.514 335.896 822.755 328.655C823.02 320.788 824.535 311.309 834.976 311.477C844.912 311.646 844.84 321.028 846.115 326.586Z" fill="#DF1B4F"/>
</svg>
